<?xml version="1.0" standalone="no"?>
<!DOCTYPE svg PUBLIC "-//W3C//DTD SVG 20010904//EN"
 "http://www.w3.org/TR/2001/REC-SVG-20010904/DTD/svg10.dtd">
<svg version="1.0" xmlns="http://www.w3.org/2000/svg"
 width="2000.000000pt" height="1500.000000pt" viewBox="0 0 2000.000000 1500.000000"
 preserveAspectRatio="xMidYMid meet">

<g transform="translate(0.000000,1500.000000) scale(0.100000,-0.100000)"
fill="#000000" stroke="none">
<path d="M5531 8659 c-11 -18 -23 -60 -26 -93 -3 -34 -5 -536 -3 -1116 3
-1044 3 -1055 24 -1090 26 -46 44 -44 69 5 20 39 20 60 20 1140 0 1080 0 1101
-20 1139 -26 52 -40 55 -64 15z"/>
<path d="M3159 8665 c-402 -76 -688 -459 -639 -856 5 -48 13 -95 16 -103 5
-13 69 -16 490 -18 l484 -3 30 -30 c20 -20 44 -69 74 -150 25 -67 47 -113 50
-105 3 8 66 184 141 390 74 206 143 386 154 400 10 14 36 31 58 39 35 13 46
13 79 0 21 -8 48 -28 59 -45 11 -17 58 -135 104 -262 l84 -232 415 2 416 3 9
30 c17 56 13 274 -7 350 -25 97 -95 238 -156 312 -144 177 -387 293 -610 293
-183 -1 -379 -72 -506 -184 l-44 -38 -68 52 c-81 63 -204 124 -292 145 -95 23
-250 27 -341 10z"/>
<path d="M16929 8665 c-128 -26 -224 -88 -272 -178 -32 -60 -32 -213 0 -272
42 -79 119 -133 291 -206 205 -87 270 -131 303 -204 21 -45 24 -121 8 -178
-14 -52 -71 -112 -125 -133 -100 -38 -248 3 -316 88 -32 41 -68 124 -68 158 0
27 -40 27 -98 -1 -53 -26 -78 -70 -68 -122 21 -110 178 -179 416 -180 137 -1
213 14 300 58 179 91 241 289 139 450 -33 52 -114 108 -216 150 -204 84 -242
101 -280 126 -55 38 -85 101 -85 179 0 82 16 123 67 168 69 61 156 76 285 49
l55 -12 39 -107 c37 -103 40 -108 67 -108 l29 0 0 129 c0 149 12 135 -120 151
-112 13 -269 11 -351 -5z"/>
<path d="M9730 8641 c0 -15 10 -20 48 -25 26 -4 59 -9 75 -12 l27 -6 0 -543 0
-542 -31 -7 c-17 -3 -47 -6 -65 -6 -30 0 -34 -3 -34 -25 l0 -25 250 0 250 0 0
25 c0 21 -5 25 -27 25 -16 0 -45 3 -65 6 l-38 7 0 260 0 260 83 -5 c181 -10
236 -94 237 -363 0 -118 39 -192 118 -227 90 -40 332 -15 332 34 0 17 -4 19
-22 13 -13 -4 -46 -10 -73 -12 -44 -4 -53 -1 -74 21 -21 22 -25 40 -33 133
-11 137 -22 192 -52 251 -40 78 -101 119 -226 153 l-65 17 46 1 c80 2 171 36
227 86 68 61 96 127 96 225 -1 162 -90 255 -278 291 -27 5 -197 9 -377 9 -316
0 -329 -1 -329 -19z m596 -42 c25 -7 60 -26 79 -43 85 -81 86 -297 2 -393 -45
-51 -104 -74 -204 -81 l-83 -5 0 260 c0 143 3 263 7 266 11 11 151 8 199 -4z"/>
<path d="M11033 8653 l-153 -4 0 -134 0 -135 24 0 c21 0 29 13 66 105 l42 105
149 0 149 0 0 -534 c0 -312 -4 -537 -9 -540 -5 -4 -43 -9 -85 -13 -71 -6 -76
-7 -76 -29 l0 -24 285 0 285 0 0 25 c0 22 -5 25 -32 25 -18 0 -57 3 -85 6
l-53 7 0 538 0 539 148 0 147 0 41 -103 c36 -90 44 -102 68 -105 l26 -3 0 134
0 134 -232 6 c-221 7 -358 6 -705 0z"/>
<path d="M15553 8653 l-153 -4 0 -134 0 -135 24 0 c20 0 29 13 66 105 l43 105
149 0 148 0 0 -534 c0 -312 -4 -537 -9 -540 -5 -4 -43 -9 -85 -13 -71 -6 -76
-7 -76 -29 l0 -24 285 0 285 0 0 25 c0 22 -5 25 -32 25 -18 0 -57 3 -85 6
l-53 7 0 538 0 539 148 0 147 0 41 -103 c37 -90 45 -102 68 -105 l26 -3 0 134
0 134 -232 6 c-221 7 -358 6 -705 0z"/>
<path d="M5920 8631 c0 -16 11 -20 78 -27 l77 -9 3 -534 c1 -294 -1 -538 -6
-543 -4 -4 -40 -10 -80 -14 -67 -6 -72 -8 -72 -31 l0 -23 273 2 272 3 3 23 c3
19 -1 22 -31 22 -19 0 -55 3 -81 6 l-46 7 0 268 0 269 285 0 285 0 0 -269 0
-268 -46 -7 c-26 -3 -60 -6 -75 -6 -24 0 -29 -4 -29 -25 l0 -25 270 0 270 0 0
25 c0 21 -5 25 -29 25 -15 0 -49 3 -75 6 l-46 7 0 542 0 543 75 7 c65 6 75 9
75 26 0 18 -11 19 -270 19 -259 0 -270 -1 -270 -19 0 -17 10 -20 75 -26 l75
-7 0 -244 0 -244 -285 0 -285 0 0 244 0 244 80 7 c69 6 80 10 80 26 0 18 -12
19 -275 19 -263 0 -275 -1 -275 -19z"/>
<path d="M7392 8633 c2 -14 19 -20 81 -27 l77 -9 0 -543 0 -542 -67 -7 c-87
-8 -95 -11 -91 -32 3 -17 35 -18 486 -21 265 -1 482 -1 483 0 1 2 6 63 13 136
l11 133 -29 -3 c-26 -3 -33 -12 -70 -96 -23 -51 -49 -98 -57 -103 -7 -5 -110
-9 -226 -9 l-213 0 0 270 0 270 174 0 174 0 28 -70 c23 -59 31 -70 51 -70 l23
0 0 165 0 165 -23 0 c-20 0 -29 -11 -52 -65 l-27 -65 -174 0 -174 0 0 246 0
247 77 -7 c42 -3 130 -6 197 -6 l121 0 34 -95 c31 -90 34 -95 62 -95 l29 0 0
125 0 125 -461 0 c-433 0 -460 -1 -457 -17z"/>
<path d="M8769 8098 l-216 -553 -66 -24 c-58 -20 -67 -27 -67 -47 l0 -24 183
2 c177 3 182 4 185 24 3 19 -6 24 -68 40 -38 10 -75 21 -80 24 -6 4 18 83 62
198 l71 192 203 0 202 0 82 -205 c45 -113 80 -208 78 -211 -3 -2 -35 -7 -72
-11 -61 -5 -66 -8 -66 -29 l0 -24 260 0 260 0 0 24 c0 21 -5 24 -62 30 -34 3
-65 9 -69 14 -4 4 -113 259 -242 567 l-233 560 -65 3 -64 3 -216 -553z m295
115 c47 -117 86 -214 86 -218 0 -3 -79 -5 -176 -5 -163 0 -176 1 -170 18 18
49 170 421 172 419 1 -1 41 -97 88 -214z"/>
<path d="M12060 8631 c0 -15 12 -20 73 -27 l72 -9 3 -542 2 -541 -65 -7 c-61
-7 -65 -9 -65 -33 l0 -25 303 6 c332 5 400 14 514 68 73 35 138 103 155 163
15 56 13 165 -5 207 -35 84 -103 134 -235 172 l-83 24 59 16 c141 39 217 135
216 271 -2 144 -89 234 -260 265 -33 6 -193 11 -371 11 -299 0 -313 -1 -313
-19z m550 -32 c107 -23 158 -111 147 -255 -6 -83 -30 -137 -81 -182 -40 -35
-119 -62 -183 -62 l-43 0 0 255 0 255 55 0 c29 0 77 -5 105 -11z m65 -569 c52
-16 120 -84 134 -135 28 -101 4 -248 -50 -309 -54 -62 -177 -103 -266 -90
l-43 6 0 275 0 275 93 -5 c50 -3 110 -10 132 -17z"/>
<path d="M13190 8631 c0 -16 11 -20 80 -26 l80 -7 0 -543 0 -543 -67 -7 c-87
-8 -95 -11 -91 -32 3 -17 35 -18 485 -21 l481 -2 5 32 c3 18 9 79 13 136 l7
102 -27 0 c-24 0 -31 -10 -72 -97 -25 -54 -50 -101 -57 -105 -7 -4 -108 -8
-224 -8 l-213 0 0 270 0 270 173 0 174 0 27 -70 c24 -60 31 -70 52 -70 l24 0
0 166 0 165 -26 -3 c-22 -2 -30 -13 -51 -65 l-25 -63 -174 0 -174 0 0 244 0
244 193 -5 c105 -3 195 -8 198 -12 4 -3 21 -45 39 -93 31 -83 34 -88 61 -88
l29 0 0 125 0 125 -460 0 c-445 0 -460 -1 -460 -19z"/>
<path d="M14655 8323 c-70 -180 -168 -430 -217 -554 l-89 -227 -67 -23 c-52
-19 -67 -28 -67 -44 0 -19 7 -20 185 -20 177 0 185 1 185 20 0 15 -15 24 -75
43 -41 12 -76 25 -78 27 -3 3 15 55 120 333 l19 52 203 0 202 0 77 -192 c42
-106 79 -201 82 -210 6 -14 -4 -18 -64 -24 -66 -6 -71 -8 -71 -30 l0 -24 260
0 260 0 0 24 c0 22 -5 24 -68 30 l-67 7 -237 567 -236 567 -64 3 -64 3 -129
-328z m295 -330 c0 -2 -79 -3 -175 -3 -96 0 -175 4 -175 9 0 4 36 98 81 207
45 109 84 205 86 212 4 10 183 -406 183 -425z"/>
<path d="M3925 7383 c-70 -197 -138 -381 -151 -410 -28 -64 -66 -88 -133 -80
-69 8 -87 35 -165 252 -38 105 -77 214 -88 243 l-19 52 -355 0 c-270 0 -354
-3 -354 -12 0 -7 233 -245 518 -530 368 -369 530 -525 562 -541 64 -31 177
-31 240 2 31 15 201 179 531 509 267 268 500 506 518 530 l33 42 -424 0 c-517
0 -468 -17 -539 183 -23 64 -42 117 -43 117 -1 0 -60 -161 -131 -357z"/>
</g>
</svg>
